<svg width="120" height="24" viewBox="0 0 120 24" fill="none" xmlns="http://www.w3.org/2000/svg">
<path d="M11.9998 17.5196L16.1498 20.0296C16.9098 20.4896 17.8398 19.8096 17.6398 18.9496L16.5398 14.2296L20.2098 11.0496C20.8798 10.4696 20.5198 9.36958 19.6398 9.29958L14.8098 8.88958L12.9198 4.42958C12.5798 3.61958 11.4198 3.61958 11.0798 4.42958L9.18983 8.87958L4.35983 9.28958C3.47983 9.35958 3.11983 10.4596 3.78983 11.0396L7.45983 14.2196L6.35983 18.9396C6.15983 19.7996 7.08983 20.4796 7.84983 20.0196L11.9998 17.5196Z" fill="#FFBB00"/>
<path d="M83.9998 17.5196L88.1498 20.0296C88.9098 20.4896 89.8398 19.8096 89.6398 18.9496L88.5398 14.2296L92.2098 11.0496C92.8798 10.4696 92.5198 9.36958 91.6398 9.29958L86.8098 8.88958L84.9198 4.42958C84.5798 3.61958 83.4198 3.61958 83.0798 4.42958L81.1898 8.87958L76.3598 9.28958C75.4798 9.35958 75.1198 10.4596 75.7898 11.0396L79.4598 14.2196L78.3598 18.9396C78.1598 19.7996 79.0898 20.4796 79.8498 20.0196L83.9998 17.5196Z" fill="#FFBB00"/>
<path d="M59.9998 17.5196L64.1498 20.0296C64.9098 20.4896 65.8398 19.8096 65.6398 18.9496L64.5398 14.2296L68.2098 11.0496C68.8798 10.4696 68.5198 9.36958 67.6398 9.29958L62.8098 8.88958L60.9198 4.42958C60.5798 3.61958 59.4198 3.61958 59.0798 4.42958L57.1898 8.87958L52.3598 9.28958C51.4798 9.35958 51.1198 10.4596 51.7898 11.0396L55.4598 14.2196L54.3598 18.9396C54.1598 19.7996 55.0898 20.4796 55.8498 20.0196L59.9998 17.5196Z" fill="#FFBB00"/>
<path d="M35.9998 17.5196L40.1498 20.0296C40.9098 20.4896 41.8398 19.8096 41.6398 18.9496L40.5398 14.2296L44.2098 11.0496C44.8798 10.4696 44.5198 9.36958 43.6398 9.29958L38.8098 8.88958L36.9198 4.42958C36.5798 3.61958 35.4198 3.61958 35.0798 4.42958L33.1898 8.87958L28.3598 9.28958C27.4798 9.35958 27.1198 10.4596 27.7898 11.0396L31.4598 14.2196L30.3598 18.9396C30.1598 19.7996 31.0898 20.4796 31.8498 20.0196L35.9998 17.5196Z" fill="#FFBB00"/>
<path d="M108 17.5196L112.15 20.0296C112.91 20.4896 113.84 19.8096 113.64 18.9496L112.54 14.2296L116.21 11.0496C116.88 10.4696 116.52 9.36958 115.64 9.29958L110.81 8.88958L108.92 4.42958C108.58 3.61958 107.42 3.61958 107.08 4.42958L105.19 8.87958L100.36 9.28958C99.4798 9.35958 99.1198 10.4596 99.7898 11.0396L103.46 14.2196L102.36 18.9396C102.16 19.7996 103.09 20.4796 103.85 20.0196L108 17.5196Z" fill="#FFBB00"/>
</svg>
